<svg height="100%" style="fill-rule:evenodd;clip-rule:evenodd;stroke-linejoin:round;stroke-miterlimit:2;" version="1.1"
    viewBox="0 0 512 512" width="100%" xml:space="preserve" xmlns="http://www.w3.org/2000/svg"
    xmlns:serif="http://www.serif.com/" xmlns:xlink="http://www.w3.org/1999/xlink">
    <path
        d="M449.446,0c34.525,0 62.554,28.03 62.554,62.554l0,386.892c0,34.524 -28.03,62.554 -62.554,62.554l-260.214,0c10.837,-18.276 24.602,-44.144 30.094,-65.264c3.331,-12.822 17.073,-65.143 17.073,-65.143c8.934,17.04 35.04,31.465 62.807,31.465c82.652,0 142.199,-76.005 142.199,-170.448c0,-90.528 -73.876,-158.265 -168.937,-158.265c-118.259,0 -181.063,79.384 -181.063,165.827c0,40.192 21.397,90.228 55.623,106.161c5.192,2.415 7.969,1.351 9.164,-3.666c0.909,-3.809 5.53,-22.421 7.612,-31.077c0.665,-2.767 0.336,-5.147 -1.901,-7.86c-11.323,-13.729 -20.394,-38.983 -20.394,-62.536c0,-60.438 45.767,-118.921 123.739,-118.921c67.317,0 114.465,45.875 114.465,111.485c0,74.131 -37.438,125.487 -86.146,125.487c-26.9,0 -47.034,-22.243 -40.579,-49.52c7.727,-32.575 22.696,-67.726 22.696,-91.239c0,-21.047 -11.295,-38.601 -34.673,-38.601c-27.5,0 -49.585,28.448 -49.585,66.551c0,24.27 8.198,40.685 8.198,40.685c0,0 -27.155,114.826 -32.132,136.211c-5.51,23.659 -3.352,56.982 -0.956,78.664l0.011,0.004l-103.993,0c-34.524,0 -62.554,-28.03 -62.554,-62.554l0,-386.892c0,-34.524 28.029,-62.554 62.554,-62.554l386.892,0Z" />
</svg>